<?xml version="1.0" encoding="UTF-8" standalone="no"?>
<!-- Created with Inkscape (http://www.inkscape.org/) -->

<svg
   width="320.64117mm"
   height="447.33368mm"
   viewBox="0 0 320.64117 447.33368"
   version="1.1"
   id="svg1"
   inkscape:version="1.4 (e7c3feb100, 2024-10-09)"
   sodipodi:docname="flag.svg"
   xmlns:inkscape="http://www.inkscape.org/namespaces/inkscape"
   xmlns:sodipodi="http://sodipodi.sourceforge.net/DTD/sodipodi-0.dtd"
   xmlns="http://www.w3.org/2000/svg"
   xmlns:svg="http://www.w3.org/2000/svg">
  <sodipodi:namedview
     id="namedview1"
     pagecolor="#ffffff"
     bordercolor="#000000"
     borderopacity="0.25"
     inkscape:showpageshadow="2"
     inkscape:pageopacity="0.0"
     inkscape:pagecheckerboard="0"
     inkscape:deskcolor="#d1d1d1"
     inkscape:document-units="mm"
     inkscape:zoom="0.38395763"
     inkscape:cx="647.20683"
     inkscape:cy="803.47407"
     inkscape:window-width="1900"
     inkscape:window-height="1027"
     inkscape:window-x="0"
     inkscape:window-y="0"
     inkscape:window-maximized="0"
     inkscape:current-layer="layer1" />
  <defs
     id="defs1">
    <inkscape:path-effect
       effect="envelope"
       id="path-effect5"
       is_visible="true"
       lpeversion="1"
       yy="true"
       xx="false"
       bendpath1="m 49.1063,32.539382 c 106.21672,-47.58476 166.53072,38.589327 273.56986,0"
       bendpath2="M 322.67616,32.539382 V 197.44921"
       bendpath3="m 49.1063,197.44921 c 164.23655,-45.78065 145.51613,38.9039 273.56986,0"
       bendpath4="M 49.1063,32.539382 V 197.44921"
       bendpath1-nodetypes="cc"
       bendpath3-nodetypes="cc" />
    <inkscape:path-effect
       effect="fillet_chamfer"
       id="path-effect4"
       is_visible="true"
       lpeversion="1"
       nodesatellites_param="F,0,0,1,0,0,0,1 @ F,0,0,1,0,0,0,1 @ F,0,0,1,0,9.1820252,0,1 @ F,0,1,1,0,9.1820252,0,1 | F,0,0,1,0,0,0,1 @ F,0,0,1,0,0,0,1 @ F,0,0,1,0,0,0,1 @ F,0,0,1,0,0,0,1 @ F,0,0,1,0,0,0,1 @ F,0,0,1,0,0,0,1 @ F,0,0,1,0,0,0,1 @ F,0,0,1,0,0,0,1 @ F,0,0,1,0,0,0,1 @ F,0,0,1,0,0,0,1"
       radius="0"
       unit="px"
       method="auto"
       mode="F"
       chamfer_steps="1"
       flexible="false"
       use_knot_distance="true"
       apply_no_radius="true"
       apply_with_radius="true"
       only_selected="false"
       hide_knots="false" />
  </defs>
  <g
     inkscape:label="Layer 1"
     inkscape:groupmode="layer"
     id="layer1"
     transform="translate(-4.8599051,0.98725414)">
    <rect
       style="fill:#000000;stroke:#000000;stroke-width:1.31164"
       id="rect2"
       width="35.745876"
       height="446.02203"
       x="5.5157251"
       y="-0.33143413"
       rx="21.373211"
       ry="31.593454" />
    <path
       id="rect3"
       style="fill:#000000;stroke:#000000;stroke-width:1.75952"
       d="m 49.055954,32.52901 c 7.724881,52.176359 7.727098,107.14285 0.0067,164.89947 12.79012,-3.56642 25.710969,-6.71407 38.763229,-9.13402 4.959373,-0.91952 9.937791,-1.734 14.935294,-2.42651 6.48224,-0.89825 12.99942,-1.58625 19.53122,-1.99779 6.93661,-0.43707 13.88985,-0.56229 20.83542,-0.29643 0,10e-6 0,10e-6 1e-5,10e-6 3.96087,0.15162 7.91682,0.43682 11.85833,0.85674 0,0 1e-5,0 1e-5,0 6.41474,0.68343 12.79128,1.72379 19.08863,3.12611 4.20791,0.93705 8.37612,2.03609 12.51543,3.23968 4.31793,1.25557 8.60441,2.6249 12.87172,4.04283 7.87128,2.61542 15.70361,5.3625 23.68831,7.60361 1e-5,0 1e-5,0 1e-5,0 8.4599,2.37449 17.10505,4.13357 25.85388,4.94856 0.23371,0.0218 0.46747,0.0429 0.70128,0.0634 1e-5,0 1e-5,0 2e-5,0 10.37659,0.90838 20.84675,0.53695 31.18573,-0.74587 1.193,-0.14802 2.38431,-0.30752 3.57392,-0.47799 9.84051,-1.41021 19.5644,-3.57131 29.16107,-6.19727 4.94804,-1.35395 9.20456,-6.77255 9.42263,-11.92366 2.0974,-49.54364 2.09669,-98.3912 -0.002,-146.542678 -0.21788,-4.998725 -4.36343,-7.593835 -9.32079,-6.089927 -9.5271,2.890216 -19.29353,4.989172 -29.17921,6.157194 -1.19507,0.141205 -2.39163,0.268712 -3.58943,0.382748 -10.38082,0.988305 -20.85417,0.964655 -31.2468,0.07783 -0.23417,-0.01998 -0.46828,-0.0404 -0.70233,-0.06125 -8.7616,-0.780735 -17.43777,-2.169885 -26.0578,-3.907111 -8.13562,-1.639592 -16.22076,-3.588915 -24.27998,-5.62916 -4.36909,-1.106039 -8.73066,-2.238847 -13.08861,-3.363552 -4.17772,-1.078223 -8.35917,-2.146168 -12.55072,-3.17034 -6.27287,-1.53276 -12.56869,-2.967612 -18.90881,-4.19225 -1e-5,0 -1e-5,-10e-7 -2e-5,-2e-6 -3.89568,-0.752482 -7.80926,-1.4237 -11.73696,-1.991884 0,-1e-6 -1e-5,-2e-6 -1e-5,-2e-6 -6.88752,-0.996368 -13.81855,-1.675861 -20.7727,-1.92107 -6.54837,-0.230885 -13.11246,-0.06936 -19.6396,0.503131 -5.032141,0.441373 -10.042298,1.127035 -15.00634,2.06549 C 73.902052,22.896909 61.188073,27.089508 49.055954,32.52901 Z M 185.44899,61.815147 c 0.0266,0.0729 1.16019,3.171447 1.1868,3.244348 4.76842,13.005769 9.00901,24.320165 13.68148,37.438495 0.0802,0.021 1.42129,0.37203 1.50144,0.393 0,0 1e-5,0 1e-5,0 8.7028,2.22129 16.70856,4.16885 24.147,5.45391 0,0 0,0 0,0 4.07302,0.69491 8.14848,1.30817 12.22413,1.79794 -4.05445,2.78933 -8.09769,5.44889 -12.14494,8.00177 -5.43703,3.33442 -11.10773,6.20011 -17.2542,8.87159 4.62884,13.85747 8.38696,26.48795 12.19243,40.14353 -6.25655,-6.44368 -12.32046,-12.74525 -19.36556,-19.5826 -4.29736,-4.16229 -8.69887,-8.29701 -13.26065,-12.41879 0.0184,-0.007 -1.04183,0.41349 -1.02343,0.4062 -4.68998,1.91066 -9.47328,3.90169 -14.22542,6.01549 -6.59726,2.96595 -12.84518,6.28038 -18.91224,10.03246 3.49861,-12.10885 7.36852,-23.53738 11.66083,-35.13653 -4.9884,-3.8487 -9.93871,-7.55875 -14.73344,-11.058 -4.29773,-3.1378 -8.56297,-6.191283 -12.69864,-9.097206 0.51992,0.367142 -8.82002,-6.224451 -8.3001,-5.857309 2.72117,0.05048 5.49832,0.158338 8.3303,0.321638 0,0 0,0 0,0 4.15166,0.253194 8.37092,0.642852 12.65183,1.157026 6.98819,0.849968 14.17782,2.105444 21.56541,3.703697 0,0 1e-5,0 1e-5,0 0.28994,0.06423 0.57955,0.128747 0.86882,0.19353 4.23377,-11.480186 8.20846,-22.497914 11.90813,-34.024189 z"
       sodipodi:nodetypes="cccccccccccccccccc"
       inkscape:path-effect="#path-effect5"
       inkscape:original-d="M 49.1063,32.539382 V 197.44921 h 264.38783 c 5.0711,0 9.18203,-4.11093 9.18203,-9.18203 V 41.721407 c 0,-5.071094 -4.11094,-9.182028 -9.18203,-9.182025 z m 135.81755,33.419665 12.87208,37.243203 39.38158,-1.341 -31.44253,23.75049 13.44466,37.04011 -32.30449,-22.56451 -31.072,24.23263 11.47733,-37.69589 -32.64865,-22.06325 39.39759,-0.73329 z" />
  </g>
</svg>
